<?xml version="1.0" encoding="UTF-8" standalone="no"?>
<!DOCTYPE svg PUBLIC "-//W3C//DTD SVG 1.1//EN" "http://www.w3.org/Graphics/SVG/1.1/DTD/svg11.dtd">
<svg xmlns="http://www.w3.org/2000/svg" version="1.1" viewBox="0.00 0.00 1448.00 1448.00">
<path fill="#ffffff" d="
  M 472.95 145.39
  Q 475.63 145.07 478.33 145.02
  Q 485.02 144.89 491.81 145.10
  C 492.83 145.13 493.62 145.66 494.75 145.69
  Q 498.67 145.81 503.05 145.82
  C 504.19 145.83 505.12 146.36 506.27 146.43
  Q 512.75 146.86 519.27 147.40
  Q 525.72 147.93 532.03 148.88
  Q 548.69 151.40 562.70 154.22
  Q 574.49 156.60 587.89 160.20
  Q 597.86 162.89 607.01 166.07
  C 635.41 175.95 661.84 188.46 686.60 204.24
  Q 698.16 211.61 707.74 218.48
  Q 713.18 222.38 729.92 235.84
  C 735.11 240.02 738.62 236.83 743.47 232.91
  C 748.60 228.77 753.66 224.48 758.82 220.77
  Q 809.68 184.22 867.29 164.90
  Q 903.76 152.67 944.26 148.31
  Q 948.48 147.85 952.93 147.39
  Q 957.53 146.91 961.61 146.81
  Q 971.27 146.56 979.89 146.10
  Q 984.95 145.84 995.48 145.83
  Q 996.89 145.82 998.37 146.03
  Q 1000.97 146.39 1001.18 146.40
  Q 1012.30 146.81 1023.27 148.14
  Q 1034.90 149.55 1045.72 151.01
  Q 1071.36 154.46 1095.68 162.26
  Q 1109.60 166.72 1122.23 171.71
  Q 1179.07 194.16 1224.65 230.95
  Q 1277.84 273.88 1311.75 331.15
  Q 1322.36 349.07 1332.84 371.79
  Q 1337.05 380.92 1340.60 390.26
  Q 1355.62 429.87 1362.19 472.35
  Q 1362.84 476.57 1363.10 480.64
  Q 1363.39 485.12 1364.23 489.35
  C 1365.29 494.65 1364.97 500.09 1365.02 505.49
  Q 1365.03 505.99 1365.27 506.43
  Q 1365.78 507.34 1365.80 508.40
  Q 1366.13 523.92 1365.87 539.80
  Q 1365.79 544.13 1365.34 548.70
  C 1364.95 552.63 1365.05 556.57 1364.57 560.51
  C 1363.48 569.51 1362.55 578.66 1361.02 587.56
  Q 1353.60 630.69 1336.84 671.20
  Q 1327.86 692.91 1315.14 715.26
  Q 1290.84 758.00 1258.15 792.09
  Q 1246.90 803.82 1233.25 816.73
  Q 1232.19 817.74 1231.72 819.27
  A 1.50 1.48 42.9 0 0 1231.76 820.22
  Q 1232.90 823.23 1234.41 826.47
  Q 1244.76 848.54 1245.30 874.38
  Q 1245.49 883.04 1243.46 893.35
  C 1235.84 932.19 1206.64 964.96 1168.66 975.94
  Q 1154.82 979.94 1135.16 981.87
  A 0.71 0.71 0.0 0 0 1134.55 982.35
  Q 1133.76 984.68 1133.65 986.97
  Q 1133.19 996.68 1130.76 1007.66
  Q 1124.85 1034.34 1108.52 1054.04
  Q 1101.58 1062.41 1089.65 1071.28
  Q 1070.44 1085.58 1045.83 1090.32
  C 1042.28 1091.01 1038.82 1090.50 1035.45 1091.23
  C 1031.94 1091.99 1028.47 1091.61 1024.89 1092.01
  Q 1022.13 1092.32 1022.25 1095.09
  C 1022.37 1097.79 1022.44 1100.38 1022.19 1103.09
  Q 1019.45 1132.98 1003.39 1156.95
  C 990.35 1176.42 969.62 1191.19 948.12 1198.69
  Q 945.35 1199.65 942.60 1200.28
  C 940.09 1200.86 937.62 1201.72 935.07 1202.07
  Q 922.76 1203.76 910.00 1203.61
  C 899.06 1203.48 890.02 1202.53 880.58 1197.08
  A 1.58 1.57 -65.8 0 0 878.30 1197.95
  Q 876.61 1203.05 875.20 1208.14
  C 868.18 1233.40 853.40 1253.97 831.15 1268.60
  C 815.22 1279.06 795.08 1287.28 775.53 1286.83
  Q 769.25 1286.68 762.87 1286.81
  Q 760.46 1286.86 758.17 1286.16
  C 756.02 1285.50 753.79 1286.23 751.81 1285.25
  C 748.99 1283.85 746.08 1284.12 743.13 1283.05
  C 725.85 1276.75 710.73 1269.17 698.28 1255.97
  Q 696.57 1254.15 693.79 1250.50
  Q 691.64 1247.67 689.35 1244.97
  Q 688.04 1243.42 686.58 1244.82
  C 679.07 1251.98 670.82 1258.81 661.85 1264.19
  Q 637.30 1278.90 607.44 1280.63
  C 585.00 1281.94 562.24 1274.85 543.27 1262.58
  C 538.86 1259.74 534.78 1256.41 530.55 1252.81
  Q 508.35 1233.91 497.86 1206.74
  Q 492.13 1191.89 491.16 1175.92
  C 490.90 1171.68 490.30 1167.57 490.28 1163.29
  C 490.28 1161.77 489.27 1160.15 487.54 1160.23
  Q 473.24 1160.87 457.11 1157.08
  C 445.87 1154.44 435.73 1149.25 425.71 1143.93
  C 424.41 1143.23 423.27 1141.99 421.85 1141.09
  Q 385.78 1118.19 374.20 1076.74
  Q 371.05 1065.50 369.90 1052.89
  Q 369.66 1050.29 369.75 1047.10
  C 369.81 1044.93 369.19 1043.03 368.60 1041.02
  A 1.78 1.78 0.0 0 0 366.89 1039.73
  Q 354.23 1039.72 340.27 1036.98
  Q 305.18 1030.11 280.64 1004.07
  Q 280.10 1003.50 279.55 1002.87
  Q 261.91 982.45 253.91 958.32
  Q 251.56 951.25 250.78 944.22
  Q 250.54 942.03 250.14 940.34
  C 249.73 938.62 249.22 936.93 249.18 935.16
  Q 248.99 928.03 249.10 920.73
  Q 249.11 920.23 248.61 920.12
  Q 244.05 919.11 240.24 919.01
  Q 237.50 918.93 234.75 918.45
  C 232.15 918.00 229.53 918.13 226.89 917.74
  Q 200.77 913.90 179.90 900.17
  C 157.78 885.61 141.67 862.29 133.42 836.97
  Q 124.09 808.33 131.86 779.47
  Q 137.54 758.35 149.84 739.66
  C 152.35 735.85 155.59 732.66 158.43 729.01
  C 160.20 726.74 159.35 723.91 158.04 721.71
  C 132.37 678.63 114.98 630.71 108.10 581.02
  Q 106.84 571.88 105.38 555.33
  Q 104.49 545.19 104.30 535.24
  Q 103.88 512.78 104.63 505.00
  Q 105.64 494.71 106.68 484.20
  Q 107.82 472.69 109.26 464.38
  Q 127.73 358.07 198.56 275.91
  Q 198.56 275.91 198.56 275.90
  Q 210.84 262.16 221.90 251.65
  Q 268.24 207.65 322.90 182.10
  Q 368.07 160.98 420.15 151.34
  C 427.26 150.02 434.46 149.52 441.60 148.22
  Q 445.00 147.60 449.50 147.53
  C 450.41 147.52 451.18 146.97 452.14 146.94
  Q 462.31 146.63 472.95 145.39
  Z
  M 1172.91 836.59
  C 1079.63 742.78 988.33 651.03 897.06 559.61
  Q 890.72 553.27 884.24 546.57
  Q 874.68 536.71 871.10 533.85
  C 867.41 530.91 863.05 530.39 858.70 529.25
  Q 857.80 529.02 856.81 528.82
  Q 831.41 523.60 806.12 513.88
  Q 801.24 512.00 795.95 511.60
  Q 789.16 511.08 784.00 515.44
  Q 757.80 537.59 728.27 554.32
  Q 691.59 575.09 652.69 584.90
  Q 650.49 585.46 648.27 586.21
  C 646.52 586.80 644.29 586.61 642.76 587.46
  C 641.41 588.22 639.54 587.78 637.92 588.28
  Q 634.95 589.19 631.01 589.80
  Q 619.75 591.55 607.41 593.14
  C 602.94 593.71 598.32 593.73 593.73 593.94
  Q 590.07 594.10 586.06 594.46
  Q 580.74 594.95 575.48 594.49
  Q 570.64 594.06 566.03 593.92
  Q 529.95 592.82 500.37 582.36
  Q 482.85 576.16 470.81 567.62
  Q 453.96 555.66 447.59 535.00
  Q 442.10 517.17 444.93 500.85
  Q 445.31 498.67 445.99 496.60
  C 447.14 493.07 448.07 489.44 449.64 486.13
  Q 457.05 470.46 471.81 458.30
  Q 581.57 367.91 689.28 279.28
  Q 690.38 278.37 690.70 277.00
  A 1.20 1.16 -59.4 0 0 690.46 275.98
  Q 689.27 274.57 687.53 273.23
  Q 666.98 257.47 647.53 246.15
  C 620.83 230.60 591.25 218.32 560.99 211.55
  Q 529.54 204.51 503.89 203.09
  Q 491.09 202.39 467.86 202.74
  Q 457.70 202.90 448.05 204.11
  C 429.02 206.51 409.60 209.94 391.17 215.79
  C 344.27 230.68 302.36 254.61 266.06 287.58
  Q 242.08 309.35 224.58 332.99
  Q 176.49 397.97 164.46 478.25
  Q 164.26 479.59 164.17 480.90
  C 164.02 483.36 163.26 485.55 163.19 487.97
  Q 163.10 491.04 162.46 493.90
  Q 162.11 495.50 162.19 497.12
  Q 162.28 498.87 161.85 500.41
  Q 161.28 502.42 161.26 504.85
  Q 161.03 528.15 161.32 550.78
  C 161.33 551.91 162.17 552.68 162.12 553.96
  Q 162.03 556.55 162.52 559.18
  Q 162.99 561.70 163.16 564.34
  Q 163.35 567.33 163.86 571.01
  Q 165.10 580.01 166.62 588.01
  Q 176.23 638.59 200.95 683.79
  A 1.24 1.24 0.0 0 0 202.61 684.29
  Q 202.80 684.19 202.96 684.04
  Q 223.23 664.68 239.79 647.12
  C 247.03 639.44 254.76 632.15 263.13 625.30
  Q 271.47 618.48 279.46 614.15
  Q 296.37 604.98 318.35 601.12
  Q 322.79 600.33 327.33 600.44
  Q 332.52 600.55 337.97 600.42
  Q 345.67 600.24 352.77 601.60
  Q 389.50 608.61 414.65 634.66
  Q 436.79 657.58 445.74 692.61
  C 446.16 694.22 445.79 695.70 446.32 697.27
  Q 446.80 698.68 446.91 700.33
  Q 447.52 709.15 447.00 717.52
  A 2.51 2.50 -87.1 0 0 449.40 720.18
  C 452.12 720.29 454.66 720.03 457.37 720.63
  Q 460.78 721.37 464.91 721.11
  Q 467.22 720.96 469.49 721.75
  Q 472.04 722.63 474.51 722.83
  Q 477.99 723.12 481.35 724.05
  Q 485.50 725.20 489.34 726.44
  C 507.61 732.29 524.05 742.55 536.87 756.53
  Q 548.01 768.68 555.49 782.59
  Q 568.74 807.19 567.59 837.27
  Q 567.45 841.02 571.16 840.83
  C 574.75 840.65 578.09 841.58 581.64 841.80
  C 594.44 842.58 606.64 845.81 619.01 850.48
  C 624.70 852.62 630.14 855.76 635.51 858.60
  Q 638.50 860.19 641.38 862.51
  Q 644.82 865.29 646.88 866.97
  Q 655.65 874.10 663.25 883.93
  Q 673.57 897.29 680.74 913.82
  Q 688.27 931.16 688.35 949.64
  C 688.36 952.29 689.26 954.19 688.46 956.93
  Q 687.85 959.01 689.01 960.87
  A 0.96 0.94 74.4 0 0 689.77 961.31
  Q 692.00 961.42 694.23 961.54
  Q 701.23 961.91 708.34 962.78
  C 731.26 965.58 752.55 974.59 769.50 989.41
  Q 801.32 1017.23 808.25 1061.24
  C 808.37 1062.01 808.77 1062.59 808.84 1063.41
  C 809.07 1066.14 808.44 1069.12 810.03 1071.52
  Q 811.84 1074.26 814.27 1076.22
  Q 838.50 1095.73 858.74 1114.46
  Q 869.51 1124.42 879.97 1133.25
  Q 886.95 1139.14 896.27 1143.69
  Q 898.56 1144.82 900.82 1145.36
  Q 903.31 1145.95 905.72 1146.71
  C 910.15 1148.12 914.52 1147.78 919.04 1147.72
  Q 921.01 1147.69 923.30 1147.15
  C 926.83 1146.33 930.40 1145.88 933.56 1144.51
  C 951.24 1136.83 963.28 1120.83 965.50 1101.64
  C 967.30 1086.09 961.98 1071.64 950.82 1060.48
  Q 870.75 980.34 802.31 911.98
  C 798.10 907.78 794.39 902.17 793.14 896.28
  C 792.49 893.23 791.26 890.91 791.88 887.60
  Q 792.70 883.22 793.89 879.96
  Q 798.79 866.58 813.64 863.20
  Q 814.99 862.89 816.47 862.98
  Q 818.32 863.10 819.82 862.36
  Q 820.28 862.13 820.78 862.27
  Q 824.09 863.25 827.98 862.97
  A 1.32 1.29 60.4 0 1 828.82 863.21
  Q 829.70 863.83 830.83 864.13
  C 835.28 865.30 838.07 868.48 841.18 871.57
  Q 922.76 952.80 985.74 1016.50
  C 991.69 1022.52 999.92 1029.56 1007.85 1032.39
  Q 1016.82 1035.59 1026.92 1035.83
  Q 1033.81 1035.99 1038.88 1034.56
  C 1057.41 1029.34 1070.99 1016.05 1075.62 997.71
  C 1078.78 985.17 1077.35 970.26 1069.99 958.98
  Q 1063.81 949.51 1055.69 941.48
  Q 979.43 866.06 912.47 799.06
  Q 907.49 794.08 904.73 787.17
  Q 903.62 784.41 903.46 780.88
  Q 903.17 774.68 903.80 772.74
  Q 908.13 759.27 920.37 752.39
  C 921.35 751.84 922.27 751.98 923.15 751.26
  Q 923.47 751.00 923.88 751.00
  C 925.93 751.01 927.33 749.95 929.47 749.93
  Q 935.01 749.88 939.26 751.44
  Q 947.36 754.41 953.49 760.57
  Q 1018.77 826.09 1097.57 904.95
  C 1106.73 914.12 1115.58 920.51 1128.61 923.49
  Q 1131.02 924.05 1133.79 923.93
  C 1138.34 923.74 1142.87 924.29 1147.30 923.43
  Q 1158.30 921.31 1166.97 915.06
  Q 1186.24 901.16 1188.14 878.55
  Q 1190.19 853.97 1172.91 836.59
  Z
  M 969.91 534.72
  C 967.20 534.79 963.78 534.33 961.29 535.29
  Q 959.62 535.94 957.77 535.86
  A 2.04 2.03 -12.7 0 0 955.88 538.84
  Q 956.45 539.91 957.27 540.73
  Q 1065.11 648.38 1186.93 771.06
  Q 1189.16 773.29 1191.59 775.38
  Q 1193.61 777.12 1195.50 775.27
  C 1207.29 763.76 1218.80 752.48 1229.32 740.35
  C 1267.83 695.91 1294.43 642.31 1304.35 584.25
  Q 1305.66 576.59 1306.81 568.58
  C 1307.08 566.76 1306.96 564.94 1307.36 563.18
  Q 1307.80 561.27 1307.86 559.23
  Q 1308.03 553.54 1308.34 547.61
  C 1308.39 546.56 1308.97 545.65 1308.98 544.62
  Q 1309.10 527.60 1308.98 510.12
  Q 1308.97 509.57 1308.72 509.07
  Q 1308.25 508.13 1308.21 507.02
  Q 1308.05 502.03 1307.98 496.92
  C 1307.94 494.08 1307.25 491.44 1307.08 488.53
  Q 1306.91 485.75 1306.38 482.43
  Q 1304.96 473.53 1303.34 464.62
  Q 1293.01 407.79 1261.99 357.47
  Q 1247.29 333.63 1231.56 316.13
  Q 1229.29 313.61 1227.05 310.98
  Q 1224.90 308.47 1222.46 305.91
  Q 1207.31 290.02 1192.95 277.93
  Q 1147.99 240.09 1089.15 219.70
  Q 1074.00 214.45 1060.12 211.18
  Q 1032.64 204.70 1000.33 203.03
  C 990.70 202.53 980.69 202.76 970.77 202.79
  C 966.92 202.80 962.95 203.51 959.08 203.78
  Q 916.09 206.83 873.77 222.25
  Q 820.15 241.79 778.40 277.42
  Q 776.61 278.94 774.78 280.52
  Q 767.25 287.03 759.55 293.75
  Q 751.40 300.87 744.34 306.73
  Q 692.23 349.94 647.54 386.53
  Q 644.80 388.77 642.44 390.84
  C 641.33 391.82 640.18 392.67 639.05 393.60
  Q 627.31 403.36 614.70 413.37
  Q 611.79 415.68 609.22 417.82
  Q 562.43 456.83 511.91 497.58
  Q 507.84 500.87 504.28 504.07
  Q 500.61 507.37 499.11 513.04
  A 2.62 2.57 43.2 0 0 499.17 514.55
  Q 501.43 521.01 507.52 524.37
  Q 514.02 527.95 519.22 529.54
  Q 521.48 530.23 523.78 530.99
  Q 526.03 531.74 528.36 532.29
  Q 551.20 537.67 577.20 537.74
  Q 585.20 537.76 593.42 537.70
  C 596.86 537.67 600.03 536.83 603.44 536.73
  Q 605.49 536.67 607.47 536.19
  C 609.53 535.69 611.51 535.85 613.59 535.72
  Q 615.46 535.60 617.53 535.17
  Q 623.39 533.93 629.35 532.77
  Q 649.54 528.86 669.99 520.53
  Q 704.40 506.50 733.11 484.09
  Q 741.67 477.41 750.37 470.67
  C 765.88 458.66 783.57 452.70 802.77 455.20
  Q 811.80 456.37 819.90 459.23
  Q 834.27 464.31 846.62 468.23
  Q 867.37 474.83 889.38 477.73
  Q 893.59 478.28 897.59 478.97
  Q 904.45 480.17 911.27 479.75
  Q 912.34 479.68 913.18 480.39
  A 1.52 1.49 64.5 0 0 914.14 480.74
  Q 928.77 480.75 943.47 480.76
  C 944.78 480.76 945.62 479.84 947.05 479.85
  Q 950.00 479.88 952.81 479.56
  Q 962.32 478.48 971.97 476.67
  C 993.50 472.64 1013.52 464.43 1032.89 453.42
  Q 1041.80 448.36 1048.41 443.17
  Q 1055.64 437.49 1063.31 430.85
  Q 1069.22 425.73 1075.13 422.66
  Q 1080.98 419.61 1087.90 419.94
  Q 1089.03 420.00 1090.11 420.34
  C 1091.96 420.93 1093.75 420.87 1095.59 421.62
  Q 1104.96 425.41 1109.11 431.49
  Q 1120.66 448.40 1108.45 465.10
  Q 1105.39 469.27 1101.47 472.71
  Q 1046.95 520.51 976.67 533.49
  C 974.79 533.84 972.22 533.36 970.91 534.37
  Q 970.46 534.71 969.91 534.72
  Z
  M 372.9134 672.3596
  A 55.18 55.18 0.0 0 0 294.8772 672.2234
  L 200.8805 765.8925
  A 55.18 55.18 0.0 0 0 200.7443 843.9287
  L 203.4266 846.6204
  A 55.18 55.18 0.0 0 0 281.4628 846.7566
  L 375.4595 753.0875
  A 55.18 55.18 0.0 0 0 375.5957 675.0513
  L 372.9134 672.3596
  Z
  M 442.32 777.91
  Q 440.50 778.11 439.63 778.40
  Q 424.82 783.33 416.93 791.21
  Q 369.84 838.26 322.70 885.59
  Q 312.66 895.67 309.35 905.05
  Q 306.69 912.59 306.24 915.92
  Q 305.63 920.37 305.92 932.59
  Q 306.01 936.65 307.10 940.15
  Q 308.28 943.92 309.61 947.29
  Q 312.23 953.94 316.89 959.77
  C 323.62 968.17 332.28 975.79 342.45 979.73
  Q 350.91 983.01 359.14 983.49
  Q 384.90 985.02 403.46 966.24
  Q 446.93 922.27 491.22 878.14
  C 500.27 869.12 506.15 861.64 509.79 850.28
  Q 511.62 844.58 511.80 837.07
  Q 512.02 828.03 511.29 824.44
  Q 509.37 815.05 505.62 808.25
  C 499.41 797.00 488.64 786.36 476.24 781.02
  Q 471.81 779.11 467.93 778.27
  Q 466.66 777.99 465.50 777.60
  Q 464.15 777.15 462.83 777.12
  C 458.83 777.02 455.11 776.43 451.07 776.85
  C 449.03 777.06 444.76 776.66 443.24 777.59
  Q 442.82 777.85 442.32 777.91
  Z
  M 451.91 997.46
  Q 444.76 1004.59 439.43 1010.37
  Q 431.54 1018.93 427.71 1032.32
  Q 426.75 1035.70 426.61 1039.10
  C 426.45 1042.97 425.15 1046.51 426.17 1050.41
  C 426.79 1052.79 426.52 1055.15 427.00 1057.53
  C 430.44 1074.80 442.53 1089.41 457.56 1097.76
  Q 462.63 1100.58 471.05 1102.84
  C 473.43 1103.49 475.70 1103.24 478.01 1103.76
  Q 483.58 1105.01 488.75 1103.80
  C 491.05 1103.27 493.35 1103.55 495.63 1103.05
  Q 511.35 1099.59 523.58 1087.25
  Q 567.75 1042.68 612.01 998.72
  C 621.97 988.82 628.22 980.51 631.31 967.41
  C 632.71 961.44 632.64 953.68 632.06 947.60
  C 630.03 926.30 612.70 906.87 592.72 900.02
  Q 586.60 897.92 582.71 897.80
  Q 577.64 897.65 571.71 897.63
  Q 565.62 897.61 560.62 899.01
  Q 545.56 903.23 535.05 913.88
  Q 492.19 957.30 451.91 997.46
  Z
  M 751.87 1089.12
  Q 752.15 1088.08 752.03 1086.99
  Q 751.97 1086.49 752.29 1086.10
  Q 752.85 1085.41 752.91 1084.54
  Q 753.46 1076.08 752.95 1067.65
  C 752.86 1066.05 752.02 1065.29 751.98 1063.63
  Q 751.95 1062.08 751.41 1060.36
  Q 746.68 1045.21 734.06 1033.43
  Q 722.79 1022.90 710.35 1019.79
  Q 704.82 1018.40 698.65 1018.25
  Q 690.11 1018.05 686.58 1018.65
  Q 668.82 1021.68 656.98 1033.49
  Q 609.69 1080.68 562.84 1127.34
  C 548.30 1141.82 542.70 1163.23 548.83 1183.06
  Q 552.34 1194.43 560.22 1203.45
  Q 572.59 1217.63 588.46 1222.43
  C 590.46 1223.04 592.61 1222.80 594.24 1223.78
  Q 594.77 1224.11 595.40 1224.05
  Q 598.93 1223.76 602.08 1224.46
  Q 604.05 1224.90 605.98 1224.51
  Q 609.67 1223.76 613.45 1224.06
  A 1.57 1.53 28.1 0 0 614.52 1223.75
  C 615.84 1222.74 617.67 1223.09 619.32 1222.59
  Q 633.63 1218.24 643.73 1208.13
  Q 689.43 1162.43 736.87 1115.20
  Q 747.97 1104.15 751.87 1089.12
  Z
  M 767.70 1230.19
  Q 774.85 1230.89 781.39 1229.42
  Q 782.73 1229.12 784.06 1228.95
  Q 785.57 1228.75 787.01 1228.23
  Q 791.55 1226.57 794.73 1225.05
  C 808.47 1218.50 819.10 1205.17 821.81 1190.19
  C 822.82 1184.54 822.74 1178.13 822.20 1172.44
  Q 820.68 1156.47 808.80 1145.45
  Q 803.09 1140.15 797.38 1135.34
  Q 796.03 1134.21 794.45 1133.43
  Q 794.01 1133.21 793.64 1133.54
  Q 792.18 1134.85 791.16 1136.38
  Q 784.41 1146.47 778.43 1152.55
  Q 755.16 1176.21 726.38 1204.74
  A 1.58 1.57 50.1 0 0 726.20 1206.78
  C 728.80 1210.46 732.53 1212.13 735.81 1215.07
  Q 743.43 1221.89 751.34 1225.71
  Q 758.83 1229.33 767.70 1230.19
  Z"
/>
</svg>
